<?xml version="1.0" encoding="UTF-8" standalone="no"?>
<svg width="146px" height="101px" viewBox="0 0 146 101" version="1.1" xmlns="http://www.w3.org/2000/svg" xmlns:xlink="http://www.w3.org/1999/xlink" xmlns:sketch="http://www.bohemiancoding.com/sketch/ns">
    <!-- Generator: Sketch 3.0.4 (8053) - http://www.bohemiancoding.com/sketch -->
    <title>Triangle 1 + Triangle 2 + Triangle 1 + Triangle 3 + amond + i 2</title>
    <desc>Created with Sketch.</desc>
    <defs></defs>
    <g id="Page-1" stroke="none" stroke-width="1" fill="none" fill-rule="evenodd" sketch:type="MSPage">
        <g id="Triangle-1-+-Triangle-2-+-Triangle-1-+-Triangle-3-+-amond-+-i-2" sketch:type="MSLayerGroup">
            <g id="Triangle-1-+-Triangle-2" transform="translate(20.698324, 0.000000)">
                <path d="M34.518735,30.3874459 L17.3212291,0 L0.123723065,30.3874459 L0,30.3874459 L0.0618615323,30.4967532 L0,30.6060606 L0.123723065,30.6060606 L17.3212291,60.9935065 L34.518735,30.6060606 L34.6424581,30.6060606 L34.5805966,30.4967532 L34.6424581,30.3874459 L34.518735,30.3874459 Z" id="Triangle-1" fill="#417505" sketch:type="MSShapeGroup"></path>
                <text id="reen" sketch:type="MSTextLayer" font-family="Hiragino Kaku Gothic Pro" font-size="31.3333333" font-weight="313" fill="#000000">
                    <tspan x="33.5530726" y="41.1168831">reen</tspan>
                </text>
                <text id="G" sketch:type="MSTextLayer" font-family="Hiragino Kaku Gothic Pro" font-size="31.3333333" font-weight="313" fill="#FFFFFF">
                    <tspan x="5.22905028" y="42.4285714">G</tspan>
                </text>
            </g>
            <g id="Triangle-1-+-Triangle-3" transform="translate(0.000000, 39.787879)">
                <g id="Triangle-1-+-D">
                    <path d="M34.518735,30.3874459 L17.3212291,0 L0.123723065,30.3874459 L0,30.3874459 L0.0618615323,30.4967532 L0,30.6060606 L0.123723065,30.6060606 L17.3212291,60.9935065 L34.518735,30.6060606 L34.6424581,30.6060606 L34.5805966,30.4967532 L34.6424581,30.3874459 L34.518735,30.3874459 Z" id="Triangle-1" fill="#4990E2" sketch:type="MSShapeGroup"></path>
                    <text id="D" sketch:type="MSTextLayer" font-family="Hiragino Kaku Gothic Pro" font-size="31.3333333" font-weight="313" fill="#FFFFFF">
                        <tspan x="6.53631285" y="41.991342">D</tspan>
                    </text>
                </g>
            </g>
            <g id="amond-+-i" transform="translate(36.603352, 53.123377)" fill="#000000">
                <text id="amond" sketch:type="MSTextLayer" font-family="Hiragino Kaku Gothic Pro" font-size="31.3333333" font-weight="313">
                    <tspan x="5.22905028" y="28">amond</tspan>
                </text>
                <path d="M0.111553073,10.1699567 C0.268424581,11.2717749 0.331173184,12.2161905 0.331173184,13.7272554 L0.331173184,23.580658 C0.331173184,24.9028398 0.268424581,25.7842944 0.111553073,27.1379567 L2.93524022,27.1379567 C2.77836872,25.9102165 2.71562011,25.0287619 2.71562011,23.580658 L2.71562011,13.7272554 C2.71562011,12.1532294 2.77836872,11.2717749 2.93524022,10.1699567 L0.111553073,10.1699567 Z" id="i" sketch:type="MSShapeGroup"></path>
            </g>
        </g>
    </g>
</svg>