<?xml version="1.0" encoding="UTF-8" standalone="no"?>
<svg width="114px" height="79px" viewBox="0 0 114 79" version="1.1" xmlns="http://www.w3.org/2000/svg" xmlns:xlink="http://www.w3.org/1999/xlink" xmlns:sketch="http://www.bohemiancoding.com/sketch/ns">
    <!-- Generator: Sketch 3.0.4 (8053) - http://www.bohemiancoding.com/sketch -->
    <title>Triangle 1 + Triangle 2 + Triangle 1 + Triangle 3 + amond + i 2</title>
    <desc>Created with Sketch.</desc>
    <defs></defs>
    <g id="Page-1" stroke="none" stroke-width="1" fill="none" fill-rule="evenodd" sketch:type="MSPage">
        <g id="Triangle-1-+-Triangle-2-+-Triangle-1-+-Triangle-3-+-amond-+-i-2" sketch:type="MSLayerGroup">
            <g id="Triangle-1-+-Triangle-2" transform="translate(16.187151, 0.000000)">
                <path d="M26.995421,23.8332909 L13.5460894,0 L0.0967577813,23.8332909 L0,23.8332909 L0.0483788907,23.9190222 L0,24.0047534 L0.0967577813,24.0047534 L13.5460894,47.8380443 L26.995421,24.0047534 L27.0921788,24.0047534 L27.0437999,23.9190222 L27.0921788,23.8332909 L26.995421,23.8332909 Z" id="Triangle-1" fill="#417505" sketch:type="MSShapeGroup"></path>
                <text id="reen" sketch:type="MSTextLayer" font-family="Hiragino Kaku Gothic Pro" font-size="24.1527778" font-weight="313" fill="#000000">
                    <tspan x="26.2402235" y="31.2877515">reen</tspan>
                </text>
                <text id="G" sketch:type="MSTextLayer" font-family="Hiragino Kaku Gothic Pro" font-size="24.1527778" font-weight="313" fill="#FFFFFF">
                    <tspan x="4.08938547" y="32.3165266">G</tspan>
                </text>
            </g>
            <g id="Triangle-1-+-Triangle-3" transform="translate(0.000000, 31.206179)">
                <g id="Triangle-1-+-D">
                    <path d="M26.995421,23.8332909 L13.5460894,0 L0.0967577813,23.8332909 L0,23.8332909 L0.0483788907,23.9190222 L0,24.0047534 L0.0967577813,24.0047534 L13.5460894,47.8380443 L26.995421,24.0047534 L27.0921788,24.0047534 L27.0437999,23.9190222 L27.0921788,23.8332909 L26.995421,23.8332909 Z" id="Triangle-1" fill="#4990E2" sketch:type="MSShapeGroup"></path>
                    <text id="D" sketch:type="MSTextLayer" font-family="Hiragino Kaku Gothic Pro" font-size="24.1527778" font-weight="313" fill="#FFFFFF">
                        <tspan x="5.11173184" y="31.9736016">D</tspan>
                    </text>
                </g>
            </g>
            <g id="amond-+-i" transform="translate(28.625698, 41.665393)" fill="#000000">
                <text id="amond" sketch:type="MSTextLayer" font-family="Hiragino Kaku Gothic Pro" font-size="24.1527778" font-weight="313">
                    <tspan x="4.08938547" y="21">amond</tspan>
                </text>
                <path d="M0.0872402235,7.97643664 C0.209921788,8.84060776 0.258994413,9.58132586 0.258994413,10.7664748 L0.258994413,18.4946337 C0.258994413,19.5316391 0.209921788,20.222976 0.0872402235,21.2846719 L2.29550838,21.2846719 C2.17282682,20.3217384 2.12375419,19.6304015 2.12375419,18.4946337 L2.12375419,10.7664748 C2.12375419,9.53194466 2.17282682,8.84060776 2.29550838,7.97643664 L0.0872402235,7.97643664 Z" id="i" sketch:type="MSShapeGroup"></path>
            </g>
        </g>
    </g>
</svg>